<svg width="1280.1293" height="1249.496" xmlns="http://www.w3.org/2000/svg">
 <metadata id="metadata8">image/svg+xml</metadata>
 <defs>
  <clipPath clipPathUnits="userSpaceOnUse" id="clipPath20">
   <path d="m-1.250135,-7.847424l960.097,0l0,930.094l-960.097,0l0,-930.094z" id="path18"/>
  </clipPath>
  <clipPath clipPathUnits="userSpaceOnUse" id="clipPath52">
   <path d="m-4.750147,980.746564l960.097,0l0,-937.122l-960.097,0l0,937.122z" id="path50"/>
  </clipPath>
 </defs>
 <g>
  <title>background</title>
  <rect fill="none" id="canvas_background" height="402" width="582" y="-1" x="-1"/>
 </g>
 <g>
  <title>Layer 1</title>
  <g id="g10" transform="matrix(1.3333333,0,0,-1.3333333,0,1249.496) ">
   <g id="g14">
    <g id="g16" clip-path="url(#clipPath20)">
     <g id="g22">
      <path fill="#69abb2" fill-rule="nonzero" stroke="#0f0f00" d="m1077.599484,-304.07272c0,399.475 -323.839,723.31 -723.315,723.31c-399.475,0 -723.312,-323.835 -723.312,-723.31c0,-399.476 323.837,-723.314 723.312,-723.314c399.476,0 723.315,323.838 723.315,723.314" id="path24"/>
     </g>
     <g id="g26">
      <path fill="#99d5e2" fill-rule="nonzero" stroke="#0f0f00" d="m-299.479618,-81.581524c7.76,-12.043 -3.824,-43.159 0,-56.88c3.803,-13.668 17.378,-40.92 29.387,-48.886c4.999,-3.3 18.969,-7.01 23.897,-3.583c3.546,2.477 3.918,12.595 3.055,16.765c-2.566,12.388 -23.709,30.564 -28.174,42.424c-3.671,9.745 -12.536,33.398 -5.513,41.206c2.736,3.03 13.388,2.622 16.546,0c8.379,-6.961 2.912,-32.437 6.998,-42.417c6.694,-16.317 39.881,-40.425 40.766,-57.978c0.275,-5.334 -10.756,-13.38 -10.545,-18.721c0.453,-11.532 16.245,-31.959 25.888,-38.639c13.509,-9.355 51.288,-25.488 64.335,-15.519c2.046,1.557 -1.964,8.484 0,10.142c4.904,4.159 21.803,1.477 25.735,-3.577c2.804,-3.596 -5.138,-14.261 -2.412,-17.918c3.022,-4.038 15.186,-2.492 20.19,-3.606c7.898,-1.758 31.248,-8.334 31.248,-8.334c0,0 29.154,-41.752 44.12,-49.041c12.635,-6.15 46.142,5.393 56.35,-4.128c8.358,-7.811 10.235,-34.533 5.501,-44.836c-4.801,-10.469 -32.9,-16.237 -38.563,-26.292c-4.95,-8.781 -0.476,-30.094 -1.817,-40.041c-0.833,-6.208 -5.513,-24.488 -5.513,-24.488c0,0 46.493,-48.292 55.735,-68.13c2.504,-5.386 0.213,-18.935 4.312,-23.294c3.944,-4.181 20.22,-5.351 22.665,-5.351c2.442,0 45.331,-31.708 45.331,-31.708c0,0 -19.06,-98.557 0,-123.084c2.409,-3.084 13.208,-0.908 15.316,-4.188c7.855,-12.216 -13.84,-42.723 -10.424,-56.742c2.475,-10.181 25.734,-33.482 25.734,-33.482c0,0 -7.889,-42.486 -4.755,-56.281c3.702,-16.373 23.142,-45.307 34.022,-58.286c9.178,-10.946 30.157,-32.092 43.682,-37.176c10.234,-3.84 34.98,-7.085 43.854,-0.814c2.974,2.119 5.341,10.315 4.289,13.754c-2.991,9.855 -28.462,16.891 -32.241,26.486c-1.212,3.097 1.068,9.92 1.867,13.135c1.039,4.158 4.913,11.951 5.806,16.127c0.852,4.026 4.049,13.375 1.221,16.42c-3.662,3.955 -19.984,0.115 -21.793,0.602c-4.261,1.143 -11.313,9.189 -11.02,13.496c0.416,6.122 15.143,11.613 18.128,17.018l2.438,12.847l-20.222,5.656l1.191,11.928l28.827,4.25c0,0 35.022,12.383 43.838,20.556c0,0 15.322,27.254 14.678,26.296l35.57,44.359l10.43,12.996l-10.43,44.711c-0.014,0.057 -0.02,0.167 0,0.229c1.809,6.627 14.051,23.794 14.051,23.794l42.297,-1.229l28.46,21.967c10.737,19.061 0.824,66.366 9.206,86.525c4.798,11.524 26.125,27.836 31.549,39.099c2.803,5.823 8.856,19.566 5.548,25.126c-3.779,6.38 -22.842,4.439 -28.77,8.999c0,0 -15.483,27.13 -19.038,30.41c0,0 -48.971,-2.321 -64.933,0.614c-4.831,0.895 -13.775,5.122 -18.37,6.827c-8.287,3.073 0,0 -33.123,12.302c0,0 0.213,27.229 -2.447,35.825c-2.492,8.08 -17.182,29.29 -17.182,29.29l-46.531,0.631c-12.528,0.173 -17.625,33.069 -26.978,41.207c-4.965,4.302 -18.093,14.524 -23.896,11.354c-2.815,-1.544 1.108,-10.368 -1.221,-12.549c-7.842,-7.368 -33.657,-7.064 -43.484,-2.497c-6.162,2.848 -10.208,17.981 -15.935,21.604c-9.718,6.122 -34.412,12.635 -45.356,8.993c-13.52,-4.489 -23.922,-37.42 -37.357,-42.129c-14.041,-4.923 -58.856,9.734 -58.856,9.734c0,0 6.849,52.612 -4.263,64.639c-7.283,7.895 -38.141,-2.378 -42.949,7.155c-4.058,8.046 16.164,22.788 17.215,31.707c0.555,4.676 -0.424,16.553 -4.936,18.223c-15.864,5.847 -39.897,-32.942 -56.393,-36.778c-8.688,-2.011 -28.252,-0.926 -35.47,4.22c-6.149,4.389 -12.053,19.624 -12.685,27.032c-0.608,7.198 4.982,21.181 7.743,27.89c3.812,9.286 19.594,35.152 19.594,35.152c0,0 32.747,19.384 45.012,22.233c21.156,4.931 71.675,15.104 86.982,0.04c4.663,-4.589 -0.252,-25.862 -0.252,-25.862c0,0 24.134,-18.9 31.276,-14.196c9.401,6.208 -6.512,33.865 -2.473,44.206c2.841,7.286 16.323,17.187 22.506,22.111c10.54,8.387 45.489,29.12 45.489,29.12c0,0 0.744,15.828 3.075,20.485c7.194,14.328 32.386,36.291 45.355,46.014c10.926,8.183 46.959,12.638 48.217,26.021c0.132,1.333 -4.209,2.079 -4.255,3.418c-0.368,10.935 21.785,27.279 32.654,29.961c2.998,0.747 9.368,-1.43 11.957,-3.081c1.844,-1.174 3.285,-6.636 5.485,-6.703c4.623,-0.136 8.641,10.763 12.393,13.399c0.678,0.473 3.147,0.503 3.039,1.308c-0.469,3.308 -10.252,1.095 -13.585,1.848c-3.536,0.816 -11.653,1.612 -13.775,4.482c-1.948,2.629 -1.425,10.054 0,12.989c1.01,2.078 5.1,5.065 7.316,5.832c3.796,1.317 12.158,0.8 16.092,0c1.975,-0.4 5.933,-1.789 7.391,-3.141c2.6,-2.416 3.202,-10.95 6.387,-12.57c1.768,-0.882 6.541,-0.301 7.839,1.163c0.175,0.213 -0.235,0.94 0,1.105c0.473,0.338 1.654,-0.691 2.248,-0.735c5.689,-0.473 18.289,-0.28 22.567,3.401c2.163,1.849 0.696,9.378 3.188,10.777c2.877,1.617 10.834,-0.595 12.87,-3.141c1.844,-2.3 1.399,-9.104 0,-11.679c-1.677,-3.136 -13.037,-4.653 -11.954,-8.029c0,-0.019 0.052,0.009 0.066,0c2.484,-2.13 -0.422,-10.349 1.712,-12.808c5.004,-5.792 22.263,-6.694 29.688,-8.93c2.82,-0.844 9.319,-1.248 11.3,-3.387c0.074,-0.092 -0.167,-0.289 0.054,-0.475c1.821,-1.483 7.805,-0.898 9.433,0.785c3.064,3.128 2.964,13.616 0.621,17.297c-3.093,4.885 -18.229,4.698 -21.408,9.528c-2.426,3.676 -2.619,13.922 0,17.488c2.16,2.943 11.825,1.771 14.051,4.668c3.879,5.033 4.213,19.587 1.194,25.132c-2.096,3.848 -11.44,6.802 -15.245,9.07c-3.225,1.912 -10.954,4.49 -12.87,7.648c-5.522,9.138 -1.852,42.4 -1.852,42.4c0,0 -28.124,-16.134 -38.593,-18.509c-3.446,-0.78 -11.776,-2.567 -14.122,0c-5.554,6.051 8.49,25.646 3.686,32.283c-7.775,10.762 -39.348,14.799 -52.554,12.091c-6.668,-1.374 -18.702,-10.062 -21.732,-15.999c-5.582,-10.933 7.397,-39 0,-48.86c-6.053,-8.06 -31.328,-5.524 -39.068,-12.084c-6.829,-5.771 -8.408,-26.531 -15.657,-31.81c-3.445,-2.513 -13.699,-5.394 -16.971,-2.679c-7.949,6.608 6.866,33.065 0,40.737c-6.094,6.828 -36.756,4.955 -36.756,4.955l-18.375,11.675c0,0 -10.034,20.073 -7.385,26.404c7.197,17.194 48.269,30.079 65.708,37.519c7.707,3.291 25.078,13.928 32.187,9.544c4.618,-2.853 -1.01,-17.699 3.219,-21.069c3.48,-2.77 14.657,-2.057 17.942,0.929c2.01,1.815 -0.543,8.69 1.378,10.596c3.32,3.291 15.484,-0.747 18.72,2.607c0.655,0.678 0.813,2.907 0.316,3.698c-1.128,1.805 -6.67,1.575 -8.015,3.239c-1.803,2.228 -3.637,8.966 -1.849,11.2c3.555,4.44 17.801,-0.522 23.013,1.892c4.543,2.105 10.682,10.397 13.933,14.129c0.211,0.234 0.47,0.946 0.792,1.013c0.04,0.011 0.104,-0.082 0.149,-0.075c1.499,0.23 2.866,3.611 4.227,4.273c10.912,5.33 36.732,9.362 48.431,5.978c6.731,-1.958 22.168,-10.939 21.41,-17.751c-1.702,-15.409 -58.183,-13.778 -56.132,-29.152c2.354,-17.74 55.216,-24.781 71.446,-16.434c5.663,2.909 3.951,19.765 9.235,23.296c1.26,0.843 4.606,0 6.139,0c6.275,0 19.719,-3.157 25.112,0c5.045,2.953 13.45,15.065 11.038,20.319c-2.311,5.066 -18.599,0.983 -22.099,5.359c-4.061,5.069 3.592,20.313 0,25.706c-2.097,3.135 -10.539,4.555 -14.051,6.07c-13.786,5.951 -40.233,21.598 -55.142,23.81c-11.893,1.763 -36.324,-1.916 -47.827,-5.369c-7.271,-2.184 -23.194,-7.317 -26.958,-13.754c-4.25,-7.283 8.206,-27.835 1.849,-33.459c-5.281,-4.67 -22.958,-0.529 -28.187,4.192c-3.57,3.234 -5.834,13.977 -4.382,18.51c2.737,8.484 30.131,15.522 27.052,23.909c-4.132,11.273 -36.845,3.827 -49.022,2.365c-3.656,-0.436 -11.409,-1.7 -14.097,-4.164c-3.204,-2.946 -8.335,-12.399 -6.134,-16.117c2.334,-3.931 15.743,0.723 18.387,-3.02c2.654,-3.766 -0.155,-14.912 -3.694,-17.905c-5.896,-5.007 -24.863,2.64 -31.222,-1.807c-2.672,-1.871 -2.233,-10.081 -4.948,-11.919c-9.299,-6.299 -36.96,-8.723 -45.259,-1.221c-4.713,4.251 -1.333,24.666 -3.067,25.043c-0.13,0.024 -0.164,0.034 -0.037,0.034c0.014,0 0.023,-0.031 0.037,-0.034c1.896,-0.299 27.832,-2.475 35.496,0.638c8.704,3.55 28.45,16.627 26.991,25.712c-0.639,3.97 -10.683,7.793 -14.754,7.175c-6.737,-1.021 -13.18,-16.218 -19.562,-18.546c-7.632,-2.776 -25.381,-2.017 -32.528,1.786c-7.322,3.893 -12.173,22.622 -19.594,26.314c-9.29,4.611 -31.784,3.198 -41.669,0c-12.898,-4.169 -47.805,-19.102 -43.524,-31.664c3.135,-9.226 31.86,5.758 39.892,0c2.452,-1.77 4.402,-8.498 3.632,-11.381c-0.916,-3.367 -11.677,-6.294 -10.402,-9.544c3.92,-10.053 35.001,4.869 44.108,-1.202c3.57,-2.382 9.189,-12.051 6.728,-15.517c-7.048,-9.975 -40.191,-6.076 -49.647,1.781c-2.377,1.98 -0.249,9.786 -2.443,11.963c-5.599,5.548 -23.737,3.834 -31.213,6.57c-4.426,1.619 -11.977,7.806 -16.561,8.944c-7.818,1.939 -30.021,0.295 -35.784,-0.174c-107.863,-75.957 -193.768,-179.681 -246.671,-300.449l0,-40.539c0,0 26.107,-7.352 30.628,-14.363" id="path28"/>
     </g>
     <g id="g30">
      <path fill="#99d5e2" fill-rule="nonzero" stroke="#0f0f00" d="m792.45599,203.451679c-4.374,-2.918 -12.869,-10.229 -14.345,-15.191c-1.281,-4.312 3.284,-17.674 3.284,-17.674c0,0 14.047,0.278 17.54,-2.391c5.612,-4.274 4.054,-23.054 10.608,-25.77c7.495,-3.124 23.178,15.865 30.25,11.888c7.727,-4.342 10.858,-27.917 4.996,-34.505c-1.501,-1.675 -6.853,-0.155 -9.128,0c-6.265,0.457 -18.589,3.654 -24.866,3.596c-6.984,-0.065 -21.647,-0.887 -27.562,-4.508c-9.767,-5.979 -16.854,-30.806 -26.665,-36.733c-8.206,-4.961 -31.264,0.8 -38.121,-5.821c-5.887,-5.679 -10.096,-25.113 -5.518,-31.848c2.285,-3.354 13.903,-0.289 16.091,-3.71c2.865,-4.427 -0.103,-17.585 -4.601,-20.445c-8.104,-5.157 -28.248,7.495 -37.909,7.421c-8.902,-0.079 -34.764,-7.421 -34.764,-7.421c0,0 -6.764,-13.846 -7.32,-18.863c-1.086,-9.933 -0.11,-31.533 6.015,-39.544c3.363,-4.404 14.9,-8.131 20.413,-9.304c8.35,-1.779 25.621,-0.195 34.149,0.207c5.788,0.276 18.45,-1.353 23.062,2.051c3.94,2.894 7.087,17.916 7.087,17.916c0,0 22.233,40.709 36.096,45.752c5.681,2.061 17.89,-6.307 23.735,-4.748c7.606,2.014 15.834,22.8 23.385,20.616c4.112,-1.187 1.914,-12.731 4.385,-16.135c10.06,-13.794 54.633,-21.186 57.566,-37.868c0.507,-2.824 -4.342,-7.993 -7.006,-9.22c-5.875,-2.694 -22.805,6.908 -25.946,1.357c-2.101,-3.683 6.34,-11.467 9.951,-13.799c3.407,-2.212 11.929,-3.78 15.995,-3.414c5.055,0.432 15.909,3.482 18.689,7.618c3.077,4.594 -3.24,17.268 -0.317,21.959c1.2,1.932 7.903,1.823 8.299,4.056c0.424,2.338 -4.751,5.445 -6.663,6.904c-8.682,6.592 -31.314,12.694 -38.419,20.884c-4.871,5.625 -14.462,21.729 -10.113,27.73c4.604,6.364 24.555,2.976 31.943,0c3.307,-1.319 7.544,-7.472 10.175,-9.836c6.667,-6.006 23.565,-15.129 27.51,-23.099c3.131,-6.296 -1.61,-21.504 1.17,-27.959c4.022,-9.351 28.486,-29.564 28.486,-29.564c0,0 4.033,32.269 10.602,40.541c3.459,4.329 14.755,13.035 19.733,10.502c7.576,-3.866 0.178,-25.567 3.692,-33.169c2.942,-6.356 12.729,-17.857 19.292,-20.622c7.598,-3.191 30.537,-0.434 36.803,0.407c-43.081,107.878 -111.084,208.964 -198.666,284.222c-1.595,-3.479 -6.466,-17.241 -9.079,-19.464c-6.89,-5.854 -26.463,-7.972 -33.994,-13.002" id="path32"/>
     </g>
     <g id="g34">
      <path fill="#99d5e2" fill-rule="nonzero" stroke="#0f0f00" d="m699.282101,137.440982c4.096,-2.629 13.963,-6.148 16.591,-10.178c1.615,-2.474 3.246,-9.26 1.512,-11.648c-2.655,-3.611 -14.796,-0.291 -17.821,-3.6c-4.262,-4.636 -6.71,-20.186 -2.414,-24.791c3.613,-3.871 16.095,-0.254 21.441,0c7.156,0.332 22.156,-0.57 28.496,2.676c5.061,2.59 16.102,11.67 14.69,17.057c-1.039,3.967 -12.203,3.591 -15.632,5.937c-2.665,1.833 -6.617,7.036 -8.552,9.593c-3.634,4.8 -10.624,14.756 -12.892,20.296c-2.784,6.809 0.167,24.676 -6.11,28.7c-5.146,3.318 -19.086,-1.398 -24.198,-4.772c-2.56,-1.71 -5.884,-7.231 -6.757,-10.134c-0.833,-2.735 -1.379,-8.882 0,-11.395c1.641,-3.035 8.695,-5.863 11.646,-7.741" id="path36"/>
     </g>
     <g id="g38">
      <path fill="#99d5e2" fill-rule="nonzero" stroke="#0f0f00" d="m664.973446,96.796474c8.845,2.74 25.699,13.048 30.295,20.911c1.975,3.388 3.343,12.184 1.286,15.529c-1.981,3.221 -10.308,5.639 -14.146,5.984c-5.07,0.442 -15.706,-1.607 -19.853,-4.487c-5.668,-3.936 -12.831,-16.493 -14.749,-23.003c-1.05,-3.591 -2.698,-12.295 0,-14.934c3.044,-2.951 13.077,-1.274 17.167,0" id="path40"/>
     </g>
     <g id="g42">
      <path fill="#99d5e2" fill-rule="nonzero" stroke="#0f0f00" d="m77.397374,270.914585c-0.014,0.003 -0.022,0.034 -0.037,0.034c-0.127,0 -0.093,-0.011 0.037,-0.034" id="path44"/>
     </g>
    </g>
   </g>
   <g id="g46">
    <g id="g48" clip-path="url(#clipPath52)">
     <g id="g54">
      <path fill="#427375" fill-rule="nonzero" stroke="#0f0f00" d="m345.932461,308.851145c0,12.031 -30.469,21.785 -68.055,21.785c-37.585,0 -68.053,-9.754 -68.053,-21.785c0,-12.032 30.468,-21.786 68.053,-21.786c37.586,0 68.055,9.754 68.055,21.786" id="path56"/>
     </g>
     <g id="g58">
      <path fill="#69abb2" fill-rule="nonzero" stroke="#0f0f00" d="m272.154684,836.19047l-196.845,22.972l-49.611,-43.77l48.314,-37.021l198.142,8.767l0,49.052z" id="path60"/>
     </g>
     <path fill="#427375" fill-rule="nonzero" stroke="#0f0f00" d="m267.154874,910.991552l21.447,0l0,-597.483l-21.447,0l0,597.483z" id="path62"/>
     <g id="g64">
      <path fill="#69abb2" fill-rule="nonzero" stroke="#0f0f00" d="m288.601986,762.810038l0,-52.888l193.804,-14.279l45.483,42.31l-44.426,36.229l-194.861,-11.372z" id="path66"/>
     </g>
     <g id="g68">
      <path fill="#69abb2" fill-rule="nonzero" stroke="#0f0f00" d="m288.601986,604.343729l0,-52.887l152.254,-14.28l35.733,42.31l-34.902,36.229l-153.085,-11.372z" id="path70"/>
     </g>
     <g id="g72">
      <path fill="#69abb2" fill-rule="nonzero" stroke="#0f0f00" d="m267.153683,692.032267l0,-59.062l-84.832,-6.326l-34.811,40.531l29.648,35.361l89.995,-10.504z" id="path74"/>
     </g>
     <g id="g76">
      <path fill="#69abb2" fill-rule="nonzero" stroke="#0f0f00" d="m288.601986,895.85795l0,-52.888l85.084,-4.001l33.737,43.113l-33.737,34.962l-85.084,-21.186z" id="path78"/>
     </g>
     <g id="g80">
      <path fill="#427375" fill-rule="nonzero" stroke="#0f0f00" d="m20.698574,815.392679l7.933,0l43.632,-32.486l194.891,7.405l0,-3.173l-198.142,-8.767l-48.314,37.021z" id="path82"/>
     </g>
     <g id="g84">
      <path fill="#427375" fill-rule="nonzero" stroke="#0f0f00" d="m147.510571,667.174845l6.002,0l30.542,-35.394l83.1,4.562l-0.001,-3.372l-84.831,-6.327l-34.812,40.531z" id="path86"/>
     </g>
     <g id="g88">
      <path fill="#427375" fill-rule="nonzero" stroke="#0f0f00" d="m288.601986,551.456553l152.254,-14.279l35.733,42.309l-5.553,0l-31.931,-37.548l-150.503,13.09l0,-3.572z" id="path90"/>
     </g>
     <g id="g92">
      <path fill="#427375" fill-rule="nonzero" stroke="#0f0f00" d="m288.601986,709.922464l193.804,-14.28l45.483,42.311l-5.288,0l-41.252,-37.551l-192.747,13.222l0,-3.702z" id="path94"/>
     </g>
     <g id="g96">
      <path fill="#427375" fill-rule="nonzero" stroke="#0f0f00" d="m288.601986,847.363321l81.088,-3.372l31.534,38.278l6.199,-0.188l-33.737,-43.113l-85.084,4.002l0,4.393z" id="path98"/>
     </g>
     <g id="g100">
      <path fill="#69abb2" fill-rule="nonzero" stroke="#0f0f00" d="m708.160092,816.781229c1.06,6.378 6.115,10.143 12.149,9.139c6.033,-1.004 9.423,-6.174 8.362,-12.552c-1.003,-6.032 -5.743,-10.026 -12.119,-8.965c-6.032,1.003 -9.396,6.345 -8.392,12.378m7.806,23.5l0.402,4.539c0.515,9.481 5.307,19.134 15.646,28.042c9.276,7.845 14.707,13.851 15.997,21.607c1.462,8.79 -3.08,15.569 -13.91,17.548c-6.207,1.033 -13.446,0.111 -18.298,-2.447l-2.33,11.546c6.375,3.19 16.659,4.314 25.795,2.794c19.823,-3.297 26.749,-17.026 24.571,-30.126c-1.951,-11.72 -9.907,-19.076 -19.814,-27.524c-9.075,-7.702 -13.097,-14.829 -14.041,-23.705l-0.573,-4.51l-13.445,2.236z" id="path102"/>
     </g>
     <g id="g104">
      <path fill="#69abb2" fill-rule="nonzero" stroke="#0f0f00" d="m654.771359,805.498026c-1.604,5.732 1.143,10.844 6.566,12.361c5.423,1.515 10.269,-1.473 11.873,-7.205c1.516,-5.424 -0.878,-10.605 -6.611,-12.207c-5.423,-1.517 -10.312,1.628 -11.828,7.051m-2.657,22.646l-1.438,3.941c-3.268,8.108 -3.036,18.03 2.112,29.492c4.676,10.161 6.861,17.289 4.912,24.261c-2.209,7.903 -8.644,11.784 -18.445,9.21c-5.581,-1.56 -11.259,-5.153 -14.31,-9.18l-6.446,8.722c4.072,5.148 12.21,10.098 20.424,12.394c17.819,4.983 28.953,-3.766 32.245,-15.542c2.946,-10.536 -0.82,-19.775 -5.787,-30.687c-4.564,-9.964 -5.137,-17.476 -2.463,-25.247l1.281,-3.987l-12.085,-3.377z" id="path106"/>
     </g>
     <g id="g108">
      <path fill="#69abb2" fill-rule="nonzero" stroke="#0f0f00" d="m762.936398,799.799845c2.423,5.44 7.797,7.625 12.941,5.337c5.145,-2.29 6.973,-7.682 4.552,-13.121c-2.29,-5.145 -7.436,-7.609 -12.875,-5.188c-5.143,2.289 -6.905,7.828 -4.618,12.972m12.392,19.141l1.408,3.953c2.649,8.329 9.154,15.825 20.429,21.374c10.081,4.847 16.309,8.945 19.251,15.559c3.336,7.497 0.856,14.589 -8.337,18.857c-5.293,2.354 -11.958,3.207 -16.877,2.049l0.594,10.831c6.42,1.368 15.846,-0.009 23.638,-3.474c16.902,-7.523 19.903,-21.362 14.932,-32.532c-4.448,-9.997 -13.241,-14.713 -24.024,-19.953c-9.868,-4.765 -15.099,-10.185 -17.993,-17.879l-1.555,-3.887l-11.466,5.102z" id="path110"/>
     </g>
     <g id="g112">
      <path fill="#427375" fill-rule="nonzero" stroke="#0f0f00" d="m735.245968,201.800348c0,12.031 -30.469,21.785 -68.055,21.785c-37.585,0 -68.053,-9.754 -68.053,-21.785c0,-12.032 30.468,-21.786 68.053,-21.786c37.586,0 68.055,9.754 68.055,21.786" id="path114"/>
     </g>
     <g id="g116">
      <path fill="#427375" fill-rule="nonzero" stroke="#0f0f00" d="m633.254757,208.216349c0,11.157 -54.175,20.202 -121.004,20.202c-66.829,0 -121.005,-9.045 -121.005,-20.202c0,-11.157 54.176,-20.202 121.005,-20.202c66.829,0 121.004,9.045 121.004,20.202" id="path118"/>
     </g>
     <g id="g120">
      <path fill="#e8b592" fill-rule="nonzero" stroke="#0f0f00" d="m652.797787,440.717356c0,0 -54.202,25.692 -57.312,25.659c-3.115,-0.033 -1.276,-5.907 -1.276,-5.907l51.455,-33.303l7.133,13.551z" id="path122"/>
     </g>
     <g id="g124">
      <path fill="#e8b592" fill-rule="nonzero" stroke="#0f0f00" d="m596.108273,466.259348c0,0 -7.74,6.472 -10.185,6.857c-2.449,0.378 1.534,-3.169 1.534,-3.169c0,0 -4.914,3.889 -5.723,2.111c-0.811,-1.776 3.713,-3.948 3.713,-3.948c0,0 -4.659,1.685 -3.936,-0.393c0.721,-2.087 4.421,-2.98 4.421,-2.98c0,0 -6.165,0.668 -3.178,-1.486c2.992,-2.159 11.456,-2.782 11.456,-2.782l1.898,5.79z" id="path126"/>
     </g>
     <g id="g128">
      <path fill="#e8b592" fill-rule="nonzero" stroke="#0f0f00" d="m595.066281,467.106943c0,0 -2.249,7.172 -3.642,5.483c-1.386,-1.69 -2.091,-4.297 -2.091,-4.297l3.572,-1.916l2.161,0.73z" id="path130"/>
     </g>
     <g id="g132">
      <path fill="#e8b592" fill-rule="nonzero" stroke="#0f0f00" d="m690.132687,284.582544c0,0 -15.325,-46.184 -5.373,-79.718c0,0 -31.985,-5.626 -23.083,-10.986c8.9,-5.379 35.888,3.051 35.888,3.051c0,0 -5.793,51.579 2.991,82.869c8.786,31.291 -10.423,4.784 -10.423,4.784" id="path134"/>
     </g>
     <g id="g136">
      <path fill="#928c65" fill-rule="nonzero" stroke="#0f0f00" d="m697.564389,196.929255c0,0 -0.957,8.524 -1.503,20.743c-7.947,-3.915 -13.735,-0.486 -13.835,-0.43c0.534,-4.241 1.353,-8.399 2.533,-12.377c0,0 -31.985,-5.626 -23.083,-10.987c8.901,-5.379 35.888,3.051 35.888,3.051" id="path138"/>
     </g>
     <g id="g140">
      <path fill="#ffffff" fill-rule="nonzero" stroke="#0f0f00" d="m682.784054,201.952646c0.291,-0.003 0.616,-1.023 0.687,-1.379c0.32,-1.519 2.613,-0.795 2.302,0.714c-0.318,1.516 -1.384,3.053 -3.063,3.074c-1.553,0.014 -1.471,-2.389 0.074,-2.409" id="path142"/>
     </g>
     <g id="g144">
      <path fill="#ffffff" fill-rule="nonzero" stroke="#0f0f00" d="m678.3056,200.717356c0.648,-0.422 1.289,-0.604 1.313,-1.451c0.046,-1.545 2.453,-1.471 2.405,0.077c-0.055,1.843 -1.163,2.559 -2.57,3.489c-1.299,0.851 -2.436,-1.269 -1.148,-2.115" id="path146"/>
     </g>
     <g id="g148">
      <path fill="#ffffff" fill-rule="nonzero" stroke="#0f0f00" d="m674.235287,199.937052c0.34,-0.331 0.49,-0.783 0.529,-1.243c0.12,-1.54 2.527,-1.466 2.403,0.078c-0.087,1.104 -0.482,2.137 -1.286,2.922c-1.114,1.083 -2.76,-0.679 -1.646,-1.757" id="path150"/>
     </g>
     <g id="g152">
      <path fill="#e8b592" fill-rule="nonzero" stroke="#0f0f00" d="m662.658078,298.809153c0,0 -15.329,-46.184 -5.375,-79.717c0,0 -31.984,-5.62 -23.082,-10.995c8.899,-5.36 35.886,3.065 35.886,3.065c0,0 -5.793,51.579 2.993,82.87c8.786,31.291 -10.422,4.777 -10.422,4.777" id="path154"/>
     </g>
     <g id="g156">
      <path fill="#f90726" fill-rule="nonzero" stroke="#0f0f00" d="m678.9931,403.152842l-37.363,20.75l4.557,37.053l20.46,-18.19l13.464,-18.015l-1.118,-21.598z" id="path158"/>
     </g>
     <g id="g160">
      <path fill="#0b0000" fill-rule="nonzero" stroke="#0f0f00" d="m643.715695,329.089365l-12.942,-59.127l65.884,2.046l-13.843,58.295l-39.099,-1.214z" id="path162"/>
     </g>
     <g id="g164">
      <path fill="#0b0000" fill-rule="nonzero" stroke="#0f0f00" d="m674.401303,325.201639l-12.939,-59.124l65.882,2.042l-13.844,58.294l-39.099,-1.212z" id="path166"/>
     </g>
     <g id="g168">
      <path fill="#e8b592" fill-rule="nonzero" stroke="#0f0f00" d="m571.022396,682.848673c0,0 -9.383,-131.863 -4.938,-150.978c4.444,-19.116 21.48,-51.001 81.179,-61.66c0,0 21.107,2.261 25.484,-14.612c4.37,-16.873 0.945,-30.459 0.945,-30.459l16.757,-2.365c0,0 -17.142,35.405 5.117,41.874c22.266,6.465 59.879,14.695 73.696,24.431c0,0 12.995,-25.908 37.172,-19.063c24.175,6.851 29.819,31.728 19.344,48.734c0,0 32.352,43.367 32.422,92.786c0.07,49.424 -46.281,105.745 -85.222,119.618c-38.936,13.876 -150.876,12.006 -201.956,-48.306" id="path170"/>
     </g>
     <g id="g172">
      <path fill="#ffffff" fill-rule="nonzero" stroke="#0f0f00" d="m674.38757,447.031748c0,0 -7.422,-1.565 -1.203,-5.541c6.222,-3.978 20.238,-6.27 11.019,4.199l-9.816,1.342z" id="path174"/>
     </g>
     <g id="g176">
      <path fill="#f90726" fill-rule="nonzero" stroke="#0f0f00" d="m687.099484,441.202646c0,0 13.872,-31.742 20.06,-39.732c6.182,-7.995 13.253,-18.685 13.253,-18.685l-13.268,-1.534l18.374,-54.301c0,0 -68.469,-32.454 -93.081,-4.657c0,0 39.914,96.179 38.285,121.906l16.377,-2.997z" id="path178"/>
     </g>
     <g id="g180">
      <path fill="#671c0c" fill-rule="nonzero" stroke="#0f0f00" d="m820.132687,669.720255c0,0 -16.648,9.112 -66.665,-7.843c-50.015,-16.953 -105.108,-25.407 -110.322,-12.57c-5.209,12.835 6.754,30.535 6.754,30.535c0,0 -68.336,-31.484 -83.843,-12.712c-15.502,18.771 -43.326,62.193 56.252,79.728c0,0 -49.424,10.499 -22.298,20.484c27.127,9.99 104.869,17.701 159.385,-17.189c54.512,-34.896 83.671,-74.903 83.671,-74.903c0,0 8.241,29.135 -1.359,43.761c0,0 13.179,-23.179 5.525,-47.001c0,0 29.11,32.19 40.801,27.741c11.694,-4.452 13.296,-25.1 13.296,-25.1c0,0 0.808,26.453 -17.49,20.635c-18.294,-5.819 -32.403,-26.036 -32.403,-26.036c0,0 30.508,9.614 33.584,-11.953c3.074,-21.566 -7.341,-27.182 -7.341,-27.182c0,0 14.309,19.696 0.053,29.36c-14.262,9.668 -22.316,5.569 -22.316,5.569c0,0 33.354,-35.548 29.32,-60.706c-4.033,-25.153 -43.571,-38.419 -47.609,-16.882c-4.038,21.538 2.486,28.479 2.486,28.479c0,0 -35.342,-55.49 -39.426,-32.51c-4.08,22.977 8.889,39.265 8.889,39.265c0,0 -34.959,-21.303 -34.066,-3.464c0.89,17.836 19.935,40.088 33.352,41.949c13.422,1.859 11.77,8.545 11.77,8.545" id="path182"/>
     </g>
     <g id="g184">
      <path fill="#ffffff" fill-rule="nonzero" stroke="#0f0f00" d="m707.144345,381.251566l-16.271,-0.506l-0.784,25.329l-0.938,-26.826l17.993,2.003z" id="path186"/>
     </g>
     <g id="g188">
      <path fill="#e8b592" fill-rule="nonzero" stroke="#0f0f00" d="m696.448056,380.064951c0,0 10.341,-44.227 12.164,-46.099c1.825,-1.868 5.558,1.857 5.558,1.857l-2.548,45.949l-15.174,-1.707z" id="path190"/>
     </g>
     <g id="g192">
      <path fill="#e8b592" fill-rule="nonzero" stroke="#0f0f00" d="m708.35046,334.398966c0,0 -0.816,-7.566 0.286,-9.219c1.103,-1.648 1.699,2.342 1.699,2.342c0,0 -0.334,-4.704 1.581,-4.403c1.917,0.3 1.08,4.005 1.08,4.005c0,0 1.315,-3.572 2.594,-2.205c1.283,1.361 -0.125,3.996 -0.125,3.996c0,0 3.017,-4.029 3.051,-1.263c0.034,2.771 -4.347,8.171 -4.347,8.171l-5.819,-1.424z" id="path194"/>
     </g>
     <g id="g196">
      <path fill="#e8b592" fill-rule="nonzero" stroke="#0f0f00" d="m708.253781,333.383341c0,0 -4.548,-4.545 -2.367,-4.637c2.18,-0.088 4.713,0.645 4.713,0.645l-0.494,3.016l-1.852,0.976z" id="path198"/>
     </g>
     <g id="g200">
      <path fill="#230006" fill-rule="nonzero" stroke="#0f0f00" d="m581.16589,552.595743c-25.353,-0.789 -46.547,19.125 -47.333,44.482c-0.788,25.354 19.127,46.543 44.482,47.331c25.355,0.79 46.545,-19.127 47.333,-44.481c0.788,-25.353 -19.127,-46.546 -44.482,-47.332m-2.947,94.956c-27.093,-0.839 -48.37,-23.484 -47.529,-50.57c0.843,-27.093 23.484,-48.37 50.574,-47.532c27.089,0.84 48.371,23.484 47.526,50.576c-0.84,27.091 -23.484,48.371 -50.571,47.526" id="path202"/>
     </g>
     <g id="g204">
      <path fill="#230006" fill-rule="nonzero" stroke="#0f0f00" d="m683.678585,522.181162c-27.162,-0.845 -49.862,20.49 -50.702,47.65c-0.848,27.159 20.489,49.856 47.644,50.702c27.16,0.843 49.861,-20.491 50.707,-47.65c0.842,-27.16 -20.494,-49.858 -47.649,-50.702m-3.201,103.032c-29.743,-0.92 -53.112,-25.782 -52.189,-55.528c0.925,-29.745 25.786,-53.11 55.532,-52.191c29.747,0.925 53.112,25.791 52.187,55.533c-0.921,29.745 -25.786,53.111 -55.53,52.186" id="path206"/>
     </g>
     <g id="g208">
      <path fill="#230006" fill-rule="nonzero" stroke="#0f0f00" d="m729.588803,545.808664l114.593,-4.72l-5.3,-25.518l-115.022,21.672l5.729,8.566z" id="path210"/>
     </g>
     <g id="g212">
      <path fill="#230006" fill-rule="nonzero" stroke="#0f0f00" d="m627.716671,588.148966l4.855,-1.323l-2.045,-11.618l-9.417,3.335l6.607,9.606z" id="path214"/>
     </g>
     <g id="g216">
      <path fill="#230006" fill-rule="nonzero" stroke="#0f0f00" d="m536.113156,584.123575l29.282,-4.421l-0.296,-10.479l-27.727,4.499l-1.259,10.401z" id="path218"/>
     </g>
     <g id="g220">
      <path fill="#230006" fill-rule="nonzero" stroke="#0f0f00" d="m613.201962,555.255838c3.398,-4.028 8.281,-5.729 13.333,-3.932c2.084,0.739 1.187,4.071 -0.913,3.325c-3.995,-1.42 -7.316,-0.118 -9.982,3.044c-1.438,1.707 -3.863,-0.75 -2.438,-2.437" id="path222"/>
     </g>
     <g id="g224">
      <path fill="#230006" fill-rule="nonzero" stroke="#0f0f00" d="m588.369992,530.13624c9.186,-21.741 36.647,-25.247 53.391,-10.007c1.647,1.496 -0.802,3.924 -2.438,2.432c-15.278,-13.903 -39.69,-10.3 -47.976,9.313c-0.863,2.043 -3.831,0.283 -2.977,-1.738" id="path226"/>
     </g>
     <g id="g228">
      <path fill="#230006" fill-rule="nonzero" stroke="#0f0f00" d="m676.463803,570.199259c4.446,0 4.446,6.895 0,6.895c-4.449,0 -4.449,-6.895 0,-6.895" id="path230"/>
     </g>
     <g id="g232">
      <path fill="#230006" fill-rule="nonzero" stroke="#0f0f00" d="m587.24786,591.015665c4.447,0 4.447,6.894 0,6.894c-4.449,0 -4.449,-6.894 0,-6.894" id="path234"/>
     </g>
     <g id="g236">
      <path fill="#928c65" fill-rule="nonzero" stroke="#0f0f00" d="m670.086789,211.161646c0,0 -0.955,8.524 -1.502,20.746c-7.947,-3.921 -13.739,-0.492 -13.835,-0.438c0.534,-4.239 1.352,-8.402 2.533,-12.377c0,0 -31.984,-5.62 -23.082,-10.995c8.9,-5.361 35.886,3.064 35.886,3.064" id="path238"/>
     </g>
     <g id="g240">
      <path fill="#ffffff" fill-rule="nonzero" stroke="#0f0f00" d="m655.309445,216.182154c0.287,-0.002 0.613,-1.021 0.685,-1.379c0.32,-1.519 2.617,-0.797 2.301,0.714c-0.316,1.513 -1.381,3.056 -3.063,3.074c-1.552,0.012 -1.472,-2.387 0.077,-2.409" id="path242"/>
     </g>
     <g id="g244">
      <path fill="#ffffff" fill-rule="nonzero" stroke="#0f0f00" d="m650.827999,214.944849c0.649,-0.427 1.288,-0.606 1.311,-1.446c0.048,-1.548 2.453,-1.48 2.407,0.077c-0.055,1.837 -1.162,2.558 -2.57,3.484c-1.295,0.859 -2.435,-1.267 -1.148,-2.115" id="path246"/>
     </g>
     <g id="g248">
      <path fill="#ffffff" fill-rule="nonzero" stroke="#0f0f00" d="m646.759701,214.164545c0.337,-0.329 0.49,-0.775 0.526,-1.241c0.123,-1.538 2.528,-1.468 2.405,0.078c-0.086,1.101 -0.48,2.137 -1.285,2.92c-1.115,1.076 -2.757,-0.674 -1.646,-1.757" id="path250"/>
     </g>
     <g id="g252">
      <path fill="#a86538" fill-rule="nonzero" stroke="#0f0f00" d="m463.837277,329.28956l7.916,0l0,17.474c0,6.881 6.595,7.911 8.223,8.06l52.3,0c2.551,0 4.436,-0.647 5.749,-1.978c2.223,-2.262 2.267,-5.935 2.261,-5.97l0,-14.862l7.916,0l0,14.798c0.011,0.643 -0.017,6.987 -4.538,11.583c-2.837,2.885 -6.665,4.345 -11.388,4.345l-52.717,-0.011c-5.438,-0.349 -15.722,-4.141 -15.722,-15.965l0,-17.474z" id="path254"/>
     </g>
     <g id="g256">
      <path fill="#a86538" fill-rule="nonzero" stroke="#0f0f00" d="m540.835263,333.574747l0,14.351c0.006,0.034 -0.039,3.581 -2.298,5.764c-1.333,1.285 -3.248,1.91 -5.84,1.91l-53.136,0c-1.654,-0.144 -8.353,-1.137 -8.353,-7.783l0,-16.872l-7.371,0l0,-1.655l7.916,0l0,17.473c0,6.882 6.595,7.912 8.223,8.061l52.3,0c2.551,0 4.436,-0.647 5.748,-1.978c2.224,-2.262 2.268,-5.935 2.262,-5.97l0,-14.863l7.916,0l0,1.562l-7.367,0z" id="path258"/>
     </g>
     <g id="g260">
      <path fill="#c17542" fill-rule="nonzero" stroke="#0f0f00" d="m543.664486,358.39506c-2.837,2.885 -6.665,4.345 -11.388,4.345l-52.717,-0.011c-5.438,-0.35 -15.722,-4.142 -15.722,-15.966l0,-17.473l1.016,0l0,16.393c0,11.824 10.037,15.616 15.342,15.967l51.448,0.01c4.61,0 8.346,-1.46 11.114,-4.345c4.412,-4.597 4.439,-10.94 4.428,-11.583l0,-13.719l1.017,0l0,14.799c0.011,0.643 -0.017,6.986 -4.538,11.583" id="path262"/>
     </g>
     <g id="g264">
      <path fill="#c17542" fill-rule="nonzero" stroke="#0f0f00" d="m409.578813,224.674356c0,-6.195 5.022,-11.213 11.217,-11.213l173.117,0c6.194,0 11.219,5.018 11.219,11.213l0,97.951c0,6.199 -5.025,11.22 -11.219,11.22l-173.117,0c-6.195,0 -11.217,-5.021 -11.217,-11.22l0,-97.951z" id="path266"/>
     </g>
     <g id="g268">
      <path fill="#a86538" fill-rule="nonzero" stroke="#0f0f00" d="m408.24548,322.625559l0,-6.983c1.242,-0.307 2.539,-0.472 3.876,-0.472c8.906,0 16.126,7.22 16.126,16.125c0,0.868 -0.07,1.72 -0.203,2.55l-8.582,0c-6.195,0 -11.217,-5.021 -11.217,-11.22" id="path270"/>
     </g>
     <g id="g272">
      <path fill="#a86538" fill-rule="nonzero" stroke="#0f0f00" d="m592.579953,333.845255l-9.213,0c-0.133,-0.83 -0.203,-1.682 -0.203,-2.55c0,-8.905 7.219,-16.125 16.125,-16.125c1.566,0 3.078,0.227 4.51,0.644l0,6.811c0,6.199 -5.026,11.22 -11.219,11.22" id="path274"/>
     </g>
     <g id="g276">
      <path fill="#a86538" fill-rule="nonzero" stroke="#0f0f00" d="m412.121487,232.817957c-1.337,0 -2.634,-0.166 -3.876,-0.472l0,-7.672c0,-6.195 5.022,-11.212 11.217,-11.212l8.461,0c0.213,1.044 0.324,2.124 0.324,3.23c0,8.905 -7.22,16.126 -16.126,16.126" id="path278"/>
     </g>
     <g id="g280">
      <path fill="#a86538" fill-rule="nonzero" stroke="#0f0f00" d="m599.288998,232.817957c-8.906,0 -16.125,-7.221 -16.125,-16.126c0,-1.106 0.113,-2.186 0.324,-3.23l9.092,0c6.193,0 11.219,5.017 11.219,11.212l0,7.5c-1.432,0.416 -2.944,0.644 -4.51,0.644" id="path282"/>
     </g>
     <path fill="#a86538" fill-rule="nonzero" stroke="#0f0f00" d="m432.350874,213.430552l18.472,0l0,120.401l-18.472,0l0,-120.401z" id="path284"/>
     <g id="g286">
      <path fill="#231f20" fill-rule="nonzero" stroke="#0f0f00" d="m442.90176,299.004465c0,-0.727 -0.589,-1.315 -1.314,-1.315c-0.728,0 -1.317,0.588 -1.317,1.315c0,0.727 0.589,1.315 1.317,1.315c0.725,0 1.314,-0.588 1.314,-1.315" id="path288"/>
     </g>
     <g id="g290">
      <path fill="#231f20" fill-rule="nonzero" stroke="#0f0f00" d="m442.90176,303.269053c0,-0.726 -0.589,-1.314 -1.314,-1.314c-0.728,0 -1.317,0.588 -1.317,1.314c0,0.727 0.589,1.316 1.317,1.316c0.725,0 1.314,-0.589 1.314,-1.316" id="path292"/>
     </g>
     <g id="g294">
      <path fill="#231f20" fill-rule="nonzero" stroke="#0f0f00" d="m442.90176,307.535654c0,-0.727 -0.589,-1.315 -1.314,-1.315c-0.728,0 -1.317,0.588 -1.317,1.315c0,0.726 0.589,1.314 1.317,1.314c0.725,0 1.314,-0.588 1.314,-1.314" id="path296"/>
     </g>
     <g id="g298">
      <path fill="#ffffff" fill-rule="nonzero" stroke="#0f0f00" d="m430.225979,313.529856c0,2.551 2.074,4.625 4.619,4.625l13.482,0c2.546,0 4.619,-2.074 4.619,-4.625l0,-14.969c0,-2.543 -2.073,-4.618 -4.619,-4.618l-5.921,0l0,4.518l-1.635,0l0,-4.518l-5.926,0c-2.545,0 -4.619,2.075 -4.619,4.618l0,14.969zm-1.979,-14.969l0,-14.969c0,-3.637 2.958,-6.596 6.598,-6.596l13.482,0c3.637,0 6.598,2.959 6.598,6.596l0,29.938c0,3.64 -2.961,6.598 -6.598,6.598l-13.482,0c-3.64,0 -6.598,-2.958 -6.598,-6.598" id="path300"/>
     </g>
     <path fill="#a86538" fill-rule="nonzero" stroke="#0f0f00" d="m560.495874,213.430552l18.471,0l0,120.401l-18.471,0l0,-120.401z" id="path302"/>
     <g id="g304">
      <path fill="#231f20" fill-rule="nonzero" stroke="#0f0f00" d="m571.045285,299.004465c0,-0.727 -0.588,-1.315 -1.314,-1.315c-0.727,0 -1.316,0.588 -1.316,1.315c0,0.727 0.589,1.315 1.316,1.315c0.726,0 1.314,-0.588 1.314,-1.315" id="path306"/>
     </g>
     <g id="g308">
      <path fill="#231f20" fill-rule="nonzero" stroke="#0f0f00" d="m571.045285,303.269053c0,-0.726 -0.588,-1.314 -1.314,-1.314c-0.727,0 -1.316,0.588 -1.316,1.314c0,0.727 0.589,1.316 1.316,1.316c0.726,0 1.314,-0.589 1.314,-1.316" id="path310"/>
     </g>
     <g id="g312">
      <path fill="#231f20" fill-rule="nonzero" stroke="#0f0f00" d="m571.045285,307.535654c0,-0.727 -0.588,-1.315 -1.314,-1.315c-0.727,0 -1.316,0.588 -1.316,1.315c0,0.726 0.589,1.314 1.316,1.314c0.726,0 1.314,-0.588 1.314,-1.314" id="path314"/>
     </g>
     <g id="g316">
      <path fill="#ffffff" fill-rule="nonzero" stroke="#0f0f00" d="m558.369503,313.529856c0,2.551 2.074,4.625 4.62,4.625l13.481,0c2.547,0 4.619,-2.074 4.619,-4.625l0,-14.969c0,-2.543 -2.072,-4.618 -4.619,-4.618l-5.921,0l0,4.518l-1.634,0l0,-4.518l-5.926,0c-2.546,0 -4.62,2.075 -4.62,4.618l0,14.969zm-1.978,-14.969l0,-14.969c0,-3.637 2.957,-6.596 6.598,-6.596l13.481,0c3.637,0 6.6,2.959 6.6,6.596l0,29.938c0,3.64 -2.963,6.598 -6.6,6.598l-13.481,0c-3.641,0 -6.598,-2.958 -6.598,-6.598" id="path318"/>
     </g>
     <g id="g508">
      <path fill="#704121" fill-rule="nonzero" stroke="#0f0f00" d="m500.12637,319.743662c-0.242,0 -0.432,-0.146 -0.432,-0.372c0,-0.234 0.307,-0.504 0.709,-0.504c0.271,0 0.512,0.088 0.665,0.205c-0.131,0.264 -0.423,0.671 -0.942,0.671" id="path510"/>
     </g>
     <g id="g512">
      <path fill="#704121" fill-rule="nonzero" stroke="#0f0f00" d="m485.202481,317.54545c-0.088,-0.008 -0.161,0.051 -0.161,0.146c0,0.088 0.073,0.16 0.161,0.16c1.045,0.015 1.33,0.527 1.33,0.84c0,0.256 -0.08,0.446 -0.234,0.592c-0.285,0.285 -0.899,0.484 -1.578,0.447c-0.006,-0.307 -0.067,-0.651 -0.139,-1.023c0.189,0 0.533,0.102 0.533,0.401c0,0.015 -0.015,0.087 -0.015,0.111c0,0.08 0.059,0.152 0.155,0.152c0.168,0 0.168,-0.176 0.168,-0.263c0,-0.379 -0.315,-0.701 -0.9,-0.694c-0.146,-0.577 -0.248,-1.074 -0.248,-1.57c0,-0.986 0.651,-1.316 1.242,-1.316c0.598,0 1.249,0.344 1.249,1.067c0,0.628 -0.562,1.024 -1.563,0.95" id="path514"/>
     </g>
     <g id="g516">
      <path fill="#704121" fill-rule="nonzero" stroke="#0f0f00" d="m509.292385,313.782755c0,-0.233 0.199,-0.343 0.395,-0.343c0.504,0 1.082,0.474 1.367,1.204c-0.103,0.03 -0.255,0.045 -0.38,0.045c-0.607,0 -1.382,-0.387 -1.382,-0.906" id="path518"/>
     </g>
     <g id="g520">
      <path fill="#704121" fill-rule="nonzero" stroke="#0f0f00" d="m483.828488,319.152842c0,-0.248 0.227,-0.373 0.425,-0.416c0.064,0.307 0.131,0.671 0.144,0.942c-0.393,-0.088 -0.569,-0.321 -0.569,-0.526" id="path522"/>
     </g>
     <g id="g524">
      <path fill="#704121" fill-rule="nonzero" stroke="#0f0f00" d="m522.726986,317.589365c-0.364,0 -0.884,-0.468 -0.884,-1.25c0,-0.248 0.08,-0.694 0.606,-0.694c0.19,0 0.387,0.088 0.512,0.241c0.03,0.037 0.066,0.059 0.118,0.059c0.087,0 0.146,-0.073 0.146,-0.168c0,-0.138 -0.352,-0.431 -0.798,-0.431c-0.554,0 -0.913,0.373 -0.913,0.993c0,0.921 0.644,1.564 1.221,1.564c0.437,0 0.614,-0.27 0.614,-0.563c0,-0.576 -0.607,-0.862 -1.037,-0.862c-0.09,0 -0.162,0.058 -0.162,0.154c0,0.08 0.066,0.153 0.162,0.161c0.342,0.006 0.708,0.219 0.708,0.547c0,0.146 -0.103,0.249 -0.293,0.249m-4.537,-1.841c0.102,-0.103 0.256,-0.139 0.41,-0.131c-0.051,0.094 -0.073,0.233 -0.073,0.343c0,0.335 0.212,0.693 0.554,0.693c0.264,0 0.417,-0.218 0.417,-0.489c0,-0.27 -0.161,-0.555 -0.483,-0.73c0.061,-0.08 0.125,-0.155 0.184,-0.205c0.226,-0.205 0.387,-0.49 0.387,-0.788c0,-0.812 -0.759,-1.301 -1.512,-1.301c-0.664,0 -1.118,0.313 -1.118,0.876c0,0.454 0.351,0.803 0.789,0.803c0.263,0 0.453,-0.138 0.453,-0.321c0,-0.087 -0.067,-0.146 -0.147,-0.146c-0.035,0 -0.101,0.015 -0.123,0.051c-0.052,0.081 -0.139,0.11 -0.198,0.11c-0.248,0 -0.445,-0.212 -0.445,-0.497c0,-0.373 0.314,-0.576 0.789,-0.576c0.518,0 1.183,0.336 1.183,1.001c0,0.218 -0.101,0.394 -0.277,0.577c-0.125,0.123 -0.19,0.211 -0.264,0.328c-0.028,-0.008 -0.065,-0.014 -0.094,-0.014c-0.036,-0.008 -0.073,-0.008 -0.102,-0.008c-0.49,0 -0.833,0.358 -0.833,0.964c0,0.768 0.489,1.621 1.19,1.621c0.496,0 0.753,-0.393 0.753,-0.97c0,-0.095 -0.073,-0.168 -0.168,-0.168c-0.089,0 -0.146,0.073 -0.146,0.168c0,0.225 -0.096,0.671 -0.439,0.671c-0.496,0 -0.861,-0.722 -0.861,-1.322c0,-0.241 0.058,-0.43 0.174,-0.54m-2.57,0.547c-0.03,-0.189 -0.074,-0.437 -0.074,-0.584c0,-0.044 0.008,-0.072 0.015,-0.094c0.016,-0.031 0.029,-0.052 0.029,-0.089c0,-0.081 -0.081,-0.153 -0.168,-0.153c-0.16,0 -0.205,0.205 -0.205,0.351c0,0.153 0.045,0.357 0.082,0.621c0.043,0.27 0.094,0.555 0.094,0.811c0,0.35 -0.189,0.482 -0.38,0.482c-0.556,0 -0.972,-0.847 -0.972,-1.512c0,-0.27 0.125,-0.461 0.314,-0.461c0.197,0 0.344,0.176 0.417,0.373c0.021,0.059 0.08,0.094 0.14,0.094c0.094,0 0.153,-0.071 0.153,-0.16c0,-0.124 -0.234,-0.613 -0.761,-0.613c-0.292,0 -0.592,0.219 -0.592,0.767c0,0.76 0.528,1.818 1.329,1.818c0.418,0 0.674,-0.269 0.674,-0.773c0,-0.278 -0.044,-0.6 -0.095,-0.878m-3.908,-2.309c-0.089,0 -0.154,0.075 -0.154,0.162c0,0.204 -0.16,0.314 -0.227,0.343c-0.322,-0.826 -1.037,-1.351 -1.687,-1.351c-0.357,0 -0.68,0.176 -0.68,0.621c0,0.752 0.944,1.227 1.71,1.227c0.168,0 0.335,-0.022 0.468,-0.066c0.117,0.365 0.226,0.957 0.27,1.403c-0.183,-0.511 -0.57,-0.934 -0.928,-0.934c-0.452,0 -0.607,0.488 -0.607,0.999c0,0.505 0.11,1.059 0.161,1.331c0.015,0.05 0.038,0.167 0.175,0.167c0.088,0 0.162,-0.072 0.162,-0.167l-0.007,-0.029c-0.059,-0.315 -0.162,-0.834 -0.162,-1.302c0,-0.211 0.029,-0.679 0.278,-0.679c0.445,0 0.994,1.14 0.986,2.024c0,0.087 0.08,0.153 0.168,0.153c0.088,0 0.147,-0.072 0.147,-0.16c0,-0.329 -0.051,-1.045 -0.073,-1.389c-0.022,-0.307 -0.074,-0.905 -0.263,-1.534c0.241,-0.138 0.423,-0.379 0.423,-0.657c0,-0.087 -0.073,-0.162 -0.16,-0.162m-4.946,1.36c-0.504,0 -0.84,0.445 -0.84,1.126c0,0.204 0.03,0.393 0.102,0.591c0.022,0.066 0.089,0.117 0.153,0.117c0.088,0 0.154,-0.08 0.154,-0.16c0,-0.03 -0.007,-0.052 -0.014,-0.075c-0.044,-0.109 -0.066,-0.313 -0.066,-0.467c0,-0.379 0.153,-0.826 0.526,-0.826c0.527,0 0.861,0.695 0.861,1.316c0,0.292 -0.116,0.686 -0.468,0.686c-0.276,0 -0.37,-0.232 -0.37,-0.408c0,-0.293 0.218,-0.293 0.342,-0.293c0.095,0 0.168,-0.073 0.168,-0.16c0,-0.044 -0.015,-0.161 -0.198,-0.161c-0.423,0 -0.642,0.277 -0.642,0.614c0,0.35 0.248,0.716 0.716,0.716c0.482,0 0.782,-0.409 0.782,-0.994c0,-0.781 -0.46,-1.622 -1.206,-1.622m-4.638,-0.014c-0.745,0 -0.745,1.007 -0.745,1.797c0,0.496 0,1.161 -0.205,1.658c-0.205,-0.153 -0.482,-0.226 -0.774,-0.226c-0.585,0 -1.031,0.379 -1.031,0.81c0,0.396 0.307,0.673 0.753,0.673c0.679,0 1.037,-0.482 1.161,-0.717c0.103,0.176 0.139,0.41 0.139,0.616c0,0.378 -0.263,0.664 -0.525,0.729c-0.073,0.021 -0.125,0.088 -0.125,0.161c0,0.095 0.073,0.161 0.161,0.161c0.175,0 0.824,-0.329 0.824,-1.051c0,-0.352 -0.108,-0.674 -0.327,-0.937c0.269,-0.548 0.269,-1.337 0.269,-1.869c0,-0.944 0.074,-1.506 0.446,-1.506c0.746,0 1.761,2.309 1.761,3.148c0,0.358 -0.117,0.833 -0.767,0.833c-0.088,0 -0.161,0.059 -0.161,0.147c0,0.096 0.073,0.168 0.161,0.168c0.724,0 1.096,-0.483 1.096,-1.148c0,-0.817 -1.03,-3.447 -2.111,-3.447m-7.327,0.219c-0.021,-0.147 -0.138,-0.147 -0.161,-0.147c-0.095,0 -0.168,0.073 -0.168,0.168c0,0.008 0,0.014 0.008,0.03c0.059,0.256 0.16,0.81 0.16,1.286c0,0.388 -0.073,0.665 -0.263,0.665c-0.395,0 -0.862,-0.826 -1.095,-2.031c-0.016,-0.075 -0.075,-0.125 -0.155,-0.125c-0.093,0 -0.152,0.074 -0.152,0.168c0,0.087 0.131,0.622 0.16,0.739c0.08,0.328 0.147,0.649 0.155,0.897c-0.008,0.221 -0.039,0.344 -0.133,0.439c-0.022,0.037 -0.035,0.073 -0.035,0.117c0,0.08 0.072,0.152 0.16,0.152c0.146,0 0.343,-0.269 0.313,-0.708c0.198,0.453 0.483,0.687 0.812,0.687c0.168,0 0.562,-0.102 0.562,-1c0,-0.512 -0.117,-1.089 -0.168,-1.337m-4.894,-0.205c-0.505,0 -0.84,0.445 -0.84,1.126c0,0.204 0.028,0.393 0.102,0.591c0.022,0.066 0.087,0.117 0.153,0.117c0.088,0 0.154,-0.08 0.154,-0.16c0,-0.03 -0.008,-0.052 -0.016,-0.075c-0.043,-0.109 -0.065,-0.313 -0.065,-0.467c0,-0.379 0.153,-0.826 0.526,-0.826c0.527,0 0.863,0.695 0.863,1.316c0,0.292 -0.118,0.686 -0.468,0.686c-0.277,0 -0.372,-0.232 -0.372,-0.408c0,-0.293 0.219,-0.293 0.343,-0.293c0.094,0 0.168,-0.073 0.168,-0.16c0,-0.044 -0.015,-0.161 -0.197,-0.161c-0.425,0 -0.643,0.277 -0.643,0.614c0,0.35 0.248,0.716 0.716,0.716c0.481,0 0.782,-0.409 0.782,-0.994c0,-0.781 -0.461,-1.622 -1.206,-1.622m-4.39,-0.088c-0.869,0 -1.571,0.461 -1.571,1.571c0,0.532 0.132,1.088 0.27,1.629c-0.468,0.096 -0.716,0.366 -0.716,0.694c0,0.366 0.307,0.703 0.884,0.818c-0.008,0.191 -0.043,0.409 -0.146,0.519c-0.037,0.038 -0.043,0.074 -0.043,0.118c0,0.086 0.064,0.161 0.16,0.161c0.145,0 0.321,-0.256 0.359,-0.753c0.554,0.029 2.14,-0.08 2.14,-1.323c0,-0.328 -0.204,-0.746 -0.789,-0.943c0.796,-0.124 1.03,-0.745 1.03,-1.154c0,-0.892 -0.738,-1.337 -1.578,-1.337m46.111,6.866l-56.408,0l3.781,-5.057l-3.781,-5.058l56.408,0l-3.612,5.058l3.612,5.057z" id="path526"/>
     </g>
     <g id="g528">
      <path fill="#704121" fill-rule="nonzero" stroke="#0f0f00" d="m519.192746,316.16456c0,0.081 -0.031,0.183 -0.125,0.183c-0.117,0 -0.234,-0.19 -0.234,-0.395c0,-0.08 0.014,-0.183 0.051,-0.27c0.191,0.095 0.308,0.313 0.308,0.482" id="path530"/>
     </g>
    </g>
   </g>
  </g>
  <text stroke="#0f0f00" transform="matrix(2.017791867265373,0,0,2.579108577061845,-158.04385755733892,-218.27867753299537) " xml:space="preserve" text-anchor="start" font-family="'Trebuchet MS', Gadget, sans-serif" font-size="24" id="svg_1" y="152.778096" x="137.720003" fill-opacity="null" stroke-opacity="null" stroke-width="0" fill="#000000">Google</text>
  <text stroke="#0f0f00" transform="matrix(2.017791867265373,0,0,2.579108577061845,-158.04385755733892,-218.27867753299537) " xml:space="preserve" text-anchor="start" font-family="'Trebuchet MS', Gadget, sans-serif" font-size="24" id="svg_2" y="196.39803" x="297.548963" fill-opacity="null" stroke-opacity="null" stroke-width="0" fill="#000000">Facebook</text>
  <text stroke="#0f0f00" transform="matrix(1.9029275042159257,0,0,2.431521576900794,-126.71315748657054,-176.62408418415126) " xml:space="preserve" text-anchor="start" font-family="'Trebuchet MS', Gadget, sans-serif" font-size="24" id="svg_3" y="274.972747" x="300.134123" fill-opacity="null" stroke-opacity="null" stroke-width="0" fill="#000000">Apple</text>
  <text stroke="#0f0f00" transform="matrix(1.9029275042159257,0,0,2.431521576900794,-126.71315748657054,-176.62408418415126) " xml:space="preserve" text-anchor="start" font-family="'Trebuchet MS', Gadget, sans-serif" font-size="24" id="svg_4" y="226.648863" x="193.71862" fill-opacity="null" stroke-opacity="null" stroke-width="0" fill="#000000">Snap</text>
  <text stroke="#0f0f00" transform="matrix(1.9029275042159257,0,0,2.431521576900794,-126.71315748657054,-176.62408418415126) " xml:space="preserve" text-anchor="start" font-family="'Trebuchet MS', Gadget, sans-serif" font-size="24" id="svg_5" y="114.437731" x="280.427547" fill-opacity="null" stroke-opacity="null" stroke-width="0" fill="#000000">Uber</text>
 </g>
</svg>